<?xml version="1.0" encoding="UTF-8" standalone="no"?>
<!DOCTYPE svg PUBLIC "-//W3C//DTD SVG 20010904//EN"
              "http://www.w3.org/TR/2001/REC-SVG-20010904/DTD/svg10.dtd">

            <svg xmlns="http://www.w3.org/2000/svg" viewBox="-16 0 480 480.0644">
                <path fillRule="evenodd" clipRule="evenodd" d="m192.019531 256.0625c29.207031 0 96-81.007812 96-108.796875-.257812-28.484375-23.515625-51.386719-52-51.203125-17.789062-.035156-34.371093 8.984375-44 23.9375-9.632812-14.953125-26.214843-23.972656-44-23.9375-28.484375-.183594-51.746093 22.71875-52 51.203125 0 27.789063 66.789063 108.796875 96 108.796875zm-44-144c19.648438-.195312 35.753907 15.550781 36 35.203125 0 4.417969 3.582031 8 8 8s8-3.582031 8-8c0-19.882813 16.117188-36 36-36 19.878907 0 36 16.117187 36 36 0 20.796875-62.058593 92.796875-80 92.796875-17.945312 0-80-72-80-92.796875.246094-19.652344 16.347657-35.398437 36-35.203125zm0 0"/><path d="m64.019531 346.558594v125.503906c0 4.421875 3.582031 8 8 8h192c4.417969 0 8-3.578125 8-8v-88h104c4.417969 0 8-3.578125 8-8v-104h56c2.722657 0 5.261719-1.386719 6.730469-3.683594 1.472656-2.296875 1.671875-5.183594.53125-7.660156l-73.75-160c-.105469-.230469-.21875-.445312-.335938-.664062-39.28125-68.109376-114.835937-106.875-193.074218-99.066407-78.238282 7.8125-144.636719 60.75-169.675782 135.285157-25.042968 74.53125-4.078124 156.820312 53.574219 210.285156zm136-330.496094c65.558594.15625 126.125 35.050781 159.140625 91.691406l68.363282 148.308594h-51.503907c-4.417969 0-8 3.582031-8 8v104h-104c-4.417969 0-8 3.582031-8 8v88h-176v-121.039062c0-2.273438-.96875-4.441407-2.664062-5.960938-56.867188-50.832031-76.453125-131.496094-49.226563-202.746094 27.226563-71.25 95.613282-118.296875 171.890625-118.253906zm0 0"/>
            </svg>